<mxfile host="app.diagrams.net" modified="2021-06-25T14:23:08.851Z" agent="5.0 (Windows NT 10.0; Win64; x64) AppleWebKit/537.36 (KHTML, like Gecko) Chrome/91.0.4472.114 Safari/537.36" etag="zQafMTChC97KQ1akK983" version="14.8.1" type="github" pages="3">
  <diagram id="9ckgrLxiNne1qEf4r4cq" name="Grammar">
    <mxGraphModel dx="964" dy="587" grid="1" gridSize="10" guides="1" tooltips="1" connect="1" arrows="1" fold="1" page="1" pageScale="1" pageWidth="827" pageHeight="1169" math="0" shadow="0">
      <root>
        <mxCell id="0" />
        <mxCell id="1" parent="0" />
        <mxCell id="SlmF-ZcB31-W-JVVWQMC-1" value="&lt;font style=&quot;font-size: 20px&quot;&gt;Stmt&lt;/font&gt;" style="rounded=0;whiteSpace=wrap;html=1;" vertex="1" parent="1">
          <mxGeometry x="310" y="200" width="80" height="40" as="geometry" />
        </mxCell>
        <mxCell id="SlmF-ZcB31-W-JVVWQMC-2" value="&lt;font style=&quot;font-size: 20px&quot;&gt;Decl&lt;/font&gt;" style="rounded=0;whiteSpace=wrap;html=1;" vertex="1" parent="1">
          <mxGeometry x="130" y="280" width="80" height="40" as="geometry" />
        </mxCell>
        <mxCell id="SlmF-ZcB31-W-JVVWQMC-3" value="&lt;font style=&quot;font-size: 20px&quot;&gt;Expr&lt;br&gt;&lt;/font&gt;" style="rounded=0;whiteSpace=wrap;html=1;" vertex="1" parent="1">
          <mxGeometry x="230" y="280" width="80" height="40" as="geometry" />
        </mxCell>
        <mxCell id="SlmF-ZcB31-W-JVVWQMC-4" value="&lt;font style=&quot;font-size: 20px&quot;&gt;Condition&lt;/font&gt;" style="rounded=0;whiteSpace=wrap;html=1;" vertex="1" parent="1">
          <mxGeometry x="470" y="280" width="100" height="40" as="geometry" />
        </mxCell>
        <mxCell id="SlmF-ZcB31-W-JVVWQMC-5" value="&lt;font style=&quot;font-size: 20px&quot;&gt;Loop&lt;/font&gt;" style="rounded=0;whiteSpace=wrap;html=1;" vertex="1" parent="1">
          <mxGeometry x="600" y="280" width="80" height="40" as="geometry" />
        </mxCell>
        <mxCell id="SlmF-ZcB31-W-JVVWQMC-6" value="" style="endArrow=classic;html=1;entryX=0.65;entryY=-0.045;entryDx=0;entryDy=0;entryPerimeter=0;" edge="1" parent="1" target="SlmF-ZcB31-W-JVVWQMC-2">
          <mxGeometry width="50" height="50" relative="1" as="geometry">
            <mxPoint x="310" y="230" as="sourcePoint" />
            <mxPoint x="430" y="230" as="targetPoint" />
          </mxGeometry>
        </mxCell>
        <mxCell id="SlmF-ZcB31-W-JVVWQMC-7" value="" style="endArrow=classic;html=1;exitX=0.25;exitY=1;exitDx=0;exitDy=0;entryX=0.75;entryY=0;entryDx=0;entryDy=0;" edge="1" parent="1" source="SlmF-ZcB31-W-JVVWQMC-1" target="SlmF-ZcB31-W-JVVWQMC-3">
          <mxGeometry width="50" height="50" relative="1" as="geometry">
            <mxPoint x="380" y="280" as="sourcePoint" />
            <mxPoint x="430" y="230" as="targetPoint" />
          </mxGeometry>
        </mxCell>
        <mxCell id="SlmF-ZcB31-W-JVVWQMC-8" value="" style="endArrow=classic;html=1;exitX=0.75;exitY=1;exitDx=0;exitDy=0;entryX=0.5;entryY=0;entryDx=0;entryDy=0;" edge="1" parent="1" source="SlmF-ZcB31-W-JVVWQMC-1" target="SlmF-ZcB31-W-JVVWQMC-4">
          <mxGeometry width="50" height="50" relative="1" as="geometry">
            <mxPoint x="380" y="280" as="sourcePoint" />
            <mxPoint x="430" y="230" as="targetPoint" />
          </mxGeometry>
        </mxCell>
        <mxCell id="SlmF-ZcB31-W-JVVWQMC-9" value="" style="endArrow=classic;html=1;exitX=1;exitY=0.75;exitDx=0;exitDy=0;entryX=0.5;entryY=0;entryDx=0;entryDy=0;" edge="1" parent="1" source="SlmF-ZcB31-W-JVVWQMC-1" target="SlmF-ZcB31-W-JVVWQMC-5">
          <mxGeometry width="50" height="50" relative="1" as="geometry">
            <mxPoint x="380" y="280" as="sourcePoint" />
            <mxPoint x="430" y="230" as="targetPoint" />
          </mxGeometry>
        </mxCell>
        <mxCell id="SlmF-ZcB31-W-JVVWQMC-11" value="&lt;font style=&quot;font-size: 20px&quot;&gt;While&lt;/font&gt;" style="rounded=0;whiteSpace=wrap;html=1;" vertex="1" parent="1">
          <mxGeometry x="540" y="360" width="80" height="40" as="geometry" />
        </mxCell>
        <mxCell id="SlmF-ZcB31-W-JVVWQMC-12" value="&lt;font style=&quot;font-size: 20px&quot;&gt;For&lt;/font&gt;" style="rounded=0;whiteSpace=wrap;html=1;" vertex="1" parent="1">
          <mxGeometry x="680" y="360" width="80" height="40" as="geometry" />
        </mxCell>
        <mxCell id="SlmF-ZcB31-W-JVVWQMC-13" value="" style="endArrow=classic;html=1;exitX=0.25;exitY=1;exitDx=0;exitDy=0;entryX=0.5;entryY=0;entryDx=0;entryDy=0;" edge="1" parent="1" source="SlmF-ZcB31-W-JVVWQMC-5" target="SlmF-ZcB31-W-JVVWQMC-11">
          <mxGeometry width="50" height="50" relative="1" as="geometry">
            <mxPoint x="510" y="440" as="sourcePoint" />
            <mxPoint x="590" y="360" as="targetPoint" />
          </mxGeometry>
        </mxCell>
        <mxCell id="SlmF-ZcB31-W-JVVWQMC-14" value="" style="endArrow=classic;html=1;exitX=0.75;exitY=1;exitDx=0;exitDy=0;" edge="1" parent="1" source="SlmF-ZcB31-W-JVVWQMC-5" target="SlmF-ZcB31-W-JVVWQMC-12">
          <mxGeometry width="50" height="50" relative="1" as="geometry">
            <mxPoint x="510" y="440" as="sourcePoint" />
            <mxPoint x="560" y="390" as="targetPoint" />
          </mxGeometry>
        </mxCell>
        <mxCell id="SlmF-ZcB31-W-JVVWQMC-15" value="&lt;font style=&quot;font-size: 20px&quot;&gt;Program&lt;/font&gt;" style="rounded=0;whiteSpace=wrap;html=1;" vertex="1" parent="1">
          <mxGeometry x="334" y="40" width="80" height="40" as="geometry" />
        </mxCell>
        <mxCell id="SlmF-ZcB31-W-JVVWQMC-16" value="&lt;span style=&quot;font-size: 20px&quot;&gt;Global Decls&lt;/span&gt;" style="rounded=0;whiteSpace=wrap;html=1;" vertex="1" parent="1">
          <mxGeometry x="160" y="120" width="120" height="40" as="geometry" />
        </mxCell>
        <mxCell id="SlmF-ZcB31-W-JVVWQMC-17" value="&lt;span style=&quot;font-size: 20px&quot;&gt;Main&lt;/span&gt;" style="rounded=0;whiteSpace=wrap;html=1;" vertex="1" parent="1">
          <mxGeometry x="334" y="120" width="80" height="40" as="geometry" />
        </mxCell>
        <mxCell id="SlmF-ZcB31-W-JVVWQMC-18" value="&lt;font style=&quot;font-size: 20px&quot;&gt;Function Impl&lt;/font&gt;" style="rounded=0;whiteSpace=wrap;html=1;" vertex="1" parent="1">
          <mxGeometry x="480" y="120" width="130" height="40" as="geometry" />
        </mxCell>
        <mxCell id="SlmF-ZcB31-W-JVVWQMC-19" value="" style="endArrow=classic;html=1;exitX=0.25;exitY=1;exitDx=0;exitDy=0;entryX=0.75;entryY=0;entryDx=0;entryDy=0;" edge="1" parent="1" source="SlmF-ZcB31-W-JVVWQMC-15" target="SlmF-ZcB31-W-JVVWQMC-16">
          <mxGeometry width="50" height="50" relative="1" as="geometry">
            <mxPoint x="410" y="210" as="sourcePoint" />
            <mxPoint x="460" y="160" as="targetPoint" />
          </mxGeometry>
        </mxCell>
        <mxCell id="SlmF-ZcB31-W-JVVWQMC-20" value="" style="endArrow=classic;html=1;exitX=0.5;exitY=1;exitDx=0;exitDy=0;" edge="1" parent="1" source="SlmF-ZcB31-W-JVVWQMC-15" target="SlmF-ZcB31-W-JVVWQMC-17">
          <mxGeometry width="50" height="50" relative="1" as="geometry">
            <mxPoint x="410" y="210" as="sourcePoint" />
            <mxPoint x="460" y="160" as="targetPoint" />
          </mxGeometry>
        </mxCell>
        <mxCell id="SlmF-ZcB31-W-JVVWQMC-21" value="" style="endArrow=classic;html=1;entryX=0.25;entryY=0;entryDx=0;entryDy=0;" edge="1" parent="1" source="SlmF-ZcB31-W-JVVWQMC-15" target="SlmF-ZcB31-W-JVVWQMC-18">
          <mxGeometry width="50" height="50" relative="1" as="geometry">
            <mxPoint x="410" y="210" as="sourcePoint" />
            <mxPoint x="460" y="160" as="targetPoint" />
          </mxGeometry>
        </mxCell>
        <mxCell id="mTv-OvWlcaXcJMn6zBkh-1" value="&lt;font style=&quot;font-size: 20px&quot;&gt;Assignment&lt;/font&gt;" style="rounded=0;whiteSpace=wrap;html=1;" vertex="1" parent="1">
          <mxGeometry x="338.5" y="280" width="110" height="40" as="geometry" />
        </mxCell>
        <mxCell id="mTv-OvWlcaXcJMn6zBkh-2" value="" style="endArrow=classic;html=1;exitX=0.5;exitY=1;exitDx=0;exitDy=0;entryX=0.25;entryY=0;entryDx=0;entryDy=0;" edge="1" parent="1" source="SlmF-ZcB31-W-JVVWQMC-1" target="mTv-OvWlcaXcJMn6zBkh-1">
          <mxGeometry width="50" height="50" relative="1" as="geometry">
            <mxPoint x="380" y="400" as="sourcePoint" />
            <mxPoint x="380" y="280" as="targetPoint" />
          </mxGeometry>
        </mxCell>
        <mxCell id="UnZ2T1HlrLIsgKYA6DNt-1" value="&lt;font style=&quot;font-size: 20px&quot;&gt;Decl&lt;/font&gt;" style="rounded=0;whiteSpace=wrap;html=1;" vertex="1" parent="1">
          <mxGeometry x="350" y="410" width="80" height="40" as="geometry" />
        </mxCell>
        <mxCell id="UnZ2T1HlrLIsgKYA6DNt-2" value="&lt;font style=&quot;font-size: 20px&quot;&gt;Variable Decl&lt;/font&gt;" style="rounded=0;whiteSpace=wrap;html=1;" vertex="1" parent="1">
          <mxGeometry x="215" y="490" width="80" height="50" as="geometry" />
        </mxCell>
        <mxCell id="UnZ2T1HlrLIsgKYA6DNt-3" value="&lt;font style=&quot;font-size: 20px&quot;&gt;Array Decl&lt;/font&gt;" style="rounded=0;whiteSpace=wrap;html=1;" vertex="1" parent="1">
          <mxGeometry x="350" y="490" width="80" height="50" as="geometry" />
        </mxCell>
        <mxCell id="UnZ2T1HlrLIsgKYA6DNt-4" value="&lt;font style=&quot;font-size: 20px&quot;&gt;ProtoType Decl&lt;/font&gt;" style="rounded=0;whiteSpace=wrap;html=1;" vertex="1" parent="1">
          <mxGeometry x="470" y="490" width="100" height="50" as="geometry" />
        </mxCell>
        <mxCell id="UnZ2T1HlrLIsgKYA6DNt-5" value="" style="endArrow=classic;html=1;exitX=0.25;exitY=1;exitDx=0;exitDy=0;entryX=0.5;entryY=0;entryDx=0;entryDy=0;" edge="1" parent="1" source="UnZ2T1HlrLIsgKYA6DNt-1" target="UnZ2T1HlrLIsgKYA6DNt-2">
          <mxGeometry width="50" height="50" relative="1" as="geometry">
            <mxPoint x="430" y="520" as="sourcePoint" />
            <mxPoint x="480" y="470" as="targetPoint" />
          </mxGeometry>
        </mxCell>
        <mxCell id="UnZ2T1HlrLIsgKYA6DNt-6" value="" style="endArrow=classic;html=1;exitX=0.5;exitY=1;exitDx=0;exitDy=0;entryX=0.5;entryY=0;entryDx=0;entryDy=0;" edge="1" parent="1" source="UnZ2T1HlrLIsgKYA6DNt-1" target="UnZ2T1HlrLIsgKYA6DNt-3">
          <mxGeometry width="50" height="50" relative="1" as="geometry">
            <mxPoint x="430" y="520" as="sourcePoint" />
            <mxPoint x="480" y="470" as="targetPoint" />
          </mxGeometry>
        </mxCell>
        <mxCell id="UnZ2T1HlrLIsgKYA6DNt-7" value="" style="endArrow=classic;html=1;exitX=0.75;exitY=1;exitDx=0;exitDy=0;entryX=0.5;entryY=0;entryDx=0;entryDy=0;" edge="1" parent="1" source="UnZ2T1HlrLIsgKYA6DNt-1" target="UnZ2T1HlrLIsgKYA6DNt-4">
          <mxGeometry width="50" height="50" relative="1" as="geometry">
            <mxPoint x="430" y="520" as="sourcePoint" />
            <mxPoint x="480" y="470" as="targetPoint" />
          </mxGeometry>
        </mxCell>
        <mxCell id="1DugYQYgMGUqFSoyTY6U-1" value="&lt;font style=&quot;font-size: 20px&quot;&gt;Expr&lt;/font&gt;" style="rounded=0;whiteSpace=wrap;html=1;" vertex="1" parent="1">
          <mxGeometry x="356.5" y="600" width="80" height="40" as="geometry" />
        </mxCell>
        <mxCell id="1DugYQYgMGUqFSoyTY6U-2" value="&lt;span style=&quot;font-size: 20px&quot;&gt;relation_expr&lt;/span&gt;" style="rounded=0;whiteSpace=wrap;html=1;" vertex="1" parent="1">
          <mxGeometry x="171.5" y="680" width="130" height="50" as="geometry" />
        </mxCell>
        <mxCell id="1DugYQYgMGUqFSoyTY6U-3" value="&lt;font style=&quot;font-size: 20px&quot;&gt;arith_expr&lt;/font&gt;" style="rounded=0;whiteSpace=wrap;html=1;" vertex="1" parent="1">
          <mxGeometry x="321.5" y="680" width="115" height="50" as="geometry" />
        </mxCell>
        <mxCell id="1DugYQYgMGUqFSoyTY6U-4" value="&lt;font style=&quot;font-size: 20px&quot;&gt;logic_expr&lt;/font&gt;" style="rounded=0;whiteSpace=wrap;html=1;" vertex="1" parent="1">
          <mxGeometry x="476.5" y="680" width="100" height="50" as="geometry" />
        </mxCell>
        <mxCell id="1DugYQYgMGUqFSoyTY6U-5" value="" style="endArrow=classic;html=1;exitX=0.25;exitY=1;exitDx=0;exitDy=0;entryX=0.5;entryY=0;entryDx=0;entryDy=0;" edge="1" parent="1" source="1DugYQYgMGUqFSoyTY6U-1" target="1DugYQYgMGUqFSoyTY6U-2">
          <mxGeometry width="50" height="50" relative="1" as="geometry">
            <mxPoint x="436.5" y="710" as="sourcePoint" />
            <mxPoint x="486.5" y="660" as="targetPoint" />
          </mxGeometry>
        </mxCell>
        <mxCell id="1DugYQYgMGUqFSoyTY6U-6" value="" style="endArrow=classic;html=1;exitX=0.5;exitY=1;exitDx=0;exitDy=0;entryX=0.5;entryY=0;entryDx=0;entryDy=0;" edge="1" parent="1" source="1DugYQYgMGUqFSoyTY6U-1" target="1DugYQYgMGUqFSoyTY6U-3">
          <mxGeometry width="50" height="50" relative="1" as="geometry">
            <mxPoint x="436.5" y="710" as="sourcePoint" />
            <mxPoint x="486.5" y="660" as="targetPoint" />
          </mxGeometry>
        </mxCell>
        <mxCell id="1DugYQYgMGUqFSoyTY6U-7" value="" style="endArrow=classic;html=1;exitX=0.75;exitY=1;exitDx=0;exitDy=0;entryX=0.5;entryY=0;entryDx=0;entryDy=0;" edge="1" parent="1" source="1DugYQYgMGUqFSoyTY6U-1" target="1DugYQYgMGUqFSoyTY6U-4">
          <mxGeometry width="50" height="50" relative="1" as="geometry">
            <mxPoint x="436.5" y="710" as="sourcePoint" />
            <mxPoint x="486.5" y="660" as="targetPoint" />
          </mxGeometry>
        </mxCell>
        <mxCell id="1DugYQYgMGUqFSoyTY6U-20" style="edgeStyle=orthogonalEdgeStyle;rounded=0;orthogonalLoop=1;jettySize=auto;html=1;entryX=0;entryY=0.75;entryDx=0;entryDy=0;" edge="1" parent="1" source="1DugYQYgMGUqFSoyTY6U-9" target="1DugYQYgMGUqFSoyTY6U-13">
          <mxGeometry relative="1" as="geometry" />
        </mxCell>
        <mxCell id="1DugYQYgMGUqFSoyTY6U-21" style="edgeStyle=orthogonalEdgeStyle;rounded=0;orthogonalLoop=1;jettySize=auto;html=1;entryX=0;entryY=0.75;entryDx=0;entryDy=0;" edge="1" parent="1" source="1DugYQYgMGUqFSoyTY6U-9" target="1DugYQYgMGUqFSoyTY6U-11">
          <mxGeometry relative="1" as="geometry" />
        </mxCell>
        <mxCell id="1DugYQYgMGUqFSoyTY6U-22" style="edgeStyle=orthogonalEdgeStyle;rounded=0;orthogonalLoop=1;jettySize=auto;html=1;entryX=0;entryY=0.75;entryDx=0;entryDy=0;" edge="1" parent="1" source="1DugYQYgMGUqFSoyTY6U-9" target="1DugYQYgMGUqFSoyTY6U-10">
          <mxGeometry relative="1" as="geometry" />
        </mxCell>
        <mxCell id="1DugYQYgMGUqFSoyTY6U-23" style="edgeStyle=orthogonalEdgeStyle;rounded=0;orthogonalLoop=1;jettySize=auto;html=1;entryX=0;entryY=0.75;entryDx=0;entryDy=0;" edge="1" parent="1" source="1DugYQYgMGUqFSoyTY6U-9" target="1DugYQYgMGUqFSoyTY6U-12">
          <mxGeometry relative="1" as="geometry" />
        </mxCell>
        <mxCell id="1DugYQYgMGUqFSoyTY6U-9" value="&lt;font style=&quot;font-size: 20px&quot;&gt;arith_expr&lt;/font&gt;" style="rounded=0;whiteSpace=wrap;html=1;" vertex="1" parent="1">
          <mxGeometry x="110" y="880" width="115" height="50" as="geometry" />
        </mxCell>
        <mxCell id="1DugYQYgMGUqFSoyTY6U-10" value="&lt;font style=&quot;font-size: 20px&quot;&gt;arith_expr&lt;/font&gt;" style="rounded=0;whiteSpace=wrap;html=1;" vertex="1" parent="1">
          <mxGeometry x="270" y="770" width="115" height="50" as="geometry" />
        </mxCell>
        <mxCell id="1DugYQYgMGUqFSoyTY6U-11" value="&lt;font style=&quot;font-size: 20px&quot;&gt;value&lt;/font&gt;" style="rounded=0;whiteSpace=wrap;html=1;" vertex="1" parent="1">
          <mxGeometry x="270" y="840" width="115" height="50" as="geometry" />
        </mxCell>
        <mxCell id="1DugYQYgMGUqFSoyTY6U-12" value="&lt;font style=&quot;font-size: 20px&quot;&gt;func_call&lt;/font&gt;" style="rounded=0;whiteSpace=wrap;html=1;" vertex="1" parent="1">
          <mxGeometry x="270" y="980" width="115" height="50" as="geometry" />
        </mxCell>
        <mxCell id="1DugYQYgMGUqFSoyTY6U-17" style="edgeStyle=orthogonalEdgeStyle;rounded=0;orthogonalLoop=1;jettySize=auto;html=1;entryX=0;entryY=0.5;entryDx=0;entryDy=0;" edge="1" parent="1" source="1DugYQYgMGUqFSoyTY6U-13" target="1DugYQYgMGUqFSoyTY6U-15">
          <mxGeometry relative="1" as="geometry" />
        </mxCell>
        <mxCell id="1DugYQYgMGUqFSoyTY6U-24" style="edgeStyle=orthogonalEdgeStyle;rounded=0;orthogonalLoop=1;jettySize=auto;html=1;entryX=0;entryY=0.5;entryDx=0;entryDy=0;" edge="1" parent="1" source="1DugYQYgMGUqFSoyTY6U-13" target="1DugYQYgMGUqFSoyTY6U-14">
          <mxGeometry relative="1" as="geometry" />
        </mxCell>
        <mxCell id="1DugYQYgMGUqFSoyTY6U-13" value="&lt;font style=&quot;font-size: 20px&quot;&gt;left_id&lt;/font&gt;" style="rounded=0;whiteSpace=wrap;html=1;" vertex="1" parent="1">
          <mxGeometry x="270" y="910" width="115" height="50" as="geometry" />
        </mxCell>
        <mxCell id="1DugYQYgMGUqFSoyTY6U-14" value="&lt;font style=&quot;font-size: 20px&quot;&gt;id&lt;/font&gt;" style="rounded=0;whiteSpace=wrap;html=1;" vertex="1" parent="1">
          <mxGeometry x="448.5" y="870" width="115" height="50" as="geometry" />
        </mxCell>
        <mxCell id="1DugYQYgMGUqFSoyTY6U-15" value="&lt;span style=&quot;font-size: 20px&quot;&gt;id[expression]&lt;/span&gt;" style="rounded=0;whiteSpace=wrap;html=1;" vertex="1" parent="1">
          <mxGeometry x="430" y="940" width="150" height="50" as="geometry" />
        </mxCell>
      </root>
    </mxGraphModel>
  </diagram>
  <diagram id="hINfZdH6R22_M2OfWEpi" name="AST">
    <mxGraphModel dx="964" dy="587" grid="1" gridSize="10" guides="1" tooltips="1" connect="1" arrows="1" fold="1" page="1" pageScale="1" pageWidth="1169" pageHeight="1654" math="0" shadow="0">
      <root>
        <mxCell id="_O8LYCDpi1IWfMHmvwUw-0" />
        <mxCell id="_O8LYCDpi1IWfMHmvwUw-1" parent="_O8LYCDpi1IWfMHmvwUw-0" />
        <mxCell id="_O8LYCDpi1IWfMHmvwUw-2" value="&lt;font style=&quot;font-size: 20px&quot;&gt;Stmt&lt;/font&gt;" style="rounded=0;whiteSpace=wrap;html=1;" vertex="1" parent="_O8LYCDpi1IWfMHmvwUw-1">
          <mxGeometry x="490" y="230" width="80" height="40" as="geometry" />
        </mxCell>
        <mxCell id="_O8LYCDpi1IWfMHmvwUw-3" value="&lt;font style=&quot;font-size: 20px&quot;&gt;Decl&lt;/font&gt;" style="rounded=0;whiteSpace=wrap;html=1;" vertex="1" parent="_O8LYCDpi1IWfMHmvwUw-1">
          <mxGeometry x="310" y="310" width="80" height="40" as="geometry" />
        </mxCell>
        <mxCell id="_O8LYCDpi1IWfMHmvwUw-4" value="&lt;font style=&quot;font-size: 20px&quot;&gt;Expr&lt;br&gt;&lt;/font&gt;" style="rounded=0;whiteSpace=wrap;html=1;" vertex="1" parent="_O8LYCDpi1IWfMHmvwUw-1">
          <mxGeometry x="410" y="310" width="80" height="40" as="geometry" />
        </mxCell>
        <mxCell id="_O8LYCDpi1IWfMHmvwUw-5" value="&lt;font style=&quot;font-size: 20px&quot;&gt;Condition&lt;/font&gt;" style="rounded=0;whiteSpace=wrap;html=1;" vertex="1" parent="_O8LYCDpi1IWfMHmvwUw-1">
          <mxGeometry x="650" y="310" width="100" height="40" as="geometry" />
        </mxCell>
        <mxCell id="_O8LYCDpi1IWfMHmvwUw-6" value="&lt;font style=&quot;font-size: 20px&quot;&gt;Loop&lt;/font&gt;" style="rounded=0;whiteSpace=wrap;html=1;" vertex="1" parent="_O8LYCDpi1IWfMHmvwUw-1">
          <mxGeometry x="780" y="310" width="80" height="40" as="geometry" />
        </mxCell>
        <mxCell id="_O8LYCDpi1IWfMHmvwUw-7" value="" style="endArrow=classic;html=1;entryX=0.65;entryY=-0.045;entryDx=0;entryDy=0;entryPerimeter=0;" edge="1" parent="_O8LYCDpi1IWfMHmvwUw-1" target="_O8LYCDpi1IWfMHmvwUw-3">
          <mxGeometry width="50" height="50" relative="1" as="geometry">
            <mxPoint x="490" y="260" as="sourcePoint" />
            <mxPoint x="610" y="260" as="targetPoint" />
          </mxGeometry>
        </mxCell>
        <mxCell id="_O8LYCDpi1IWfMHmvwUw-8" value="" style="endArrow=classic;html=1;exitX=0.25;exitY=1;exitDx=0;exitDy=0;entryX=0.75;entryY=0;entryDx=0;entryDy=0;" edge="1" parent="_O8LYCDpi1IWfMHmvwUw-1" source="_O8LYCDpi1IWfMHmvwUw-2" target="_O8LYCDpi1IWfMHmvwUw-4">
          <mxGeometry width="50" height="50" relative="1" as="geometry">
            <mxPoint x="560" y="310" as="sourcePoint" />
            <mxPoint x="610" y="260" as="targetPoint" />
          </mxGeometry>
        </mxCell>
        <mxCell id="_O8LYCDpi1IWfMHmvwUw-9" value="" style="endArrow=classic;html=1;exitX=0.75;exitY=1;exitDx=0;exitDy=0;entryX=0.5;entryY=0;entryDx=0;entryDy=0;" edge="1" parent="_O8LYCDpi1IWfMHmvwUw-1" source="_O8LYCDpi1IWfMHmvwUw-2" target="_O8LYCDpi1IWfMHmvwUw-5">
          <mxGeometry width="50" height="50" relative="1" as="geometry">
            <mxPoint x="560" y="310" as="sourcePoint" />
            <mxPoint x="610" y="260" as="targetPoint" />
          </mxGeometry>
        </mxCell>
        <mxCell id="_O8LYCDpi1IWfMHmvwUw-10" value="" style="endArrow=classic;html=1;exitX=1;exitY=0.75;exitDx=0;exitDy=0;entryX=0.5;entryY=0;entryDx=0;entryDy=0;" edge="1" parent="_O8LYCDpi1IWfMHmvwUw-1" source="_O8LYCDpi1IWfMHmvwUw-2" target="_O8LYCDpi1IWfMHmvwUw-6">
          <mxGeometry width="50" height="50" relative="1" as="geometry">
            <mxPoint x="560" y="310" as="sourcePoint" />
            <mxPoint x="610" y="260" as="targetPoint" />
          </mxGeometry>
        </mxCell>
        <mxCell id="_O8LYCDpi1IWfMHmvwUw-11" value="&lt;font style=&quot;font-size: 20px&quot;&gt;While&lt;/font&gt;" style="rounded=0;whiteSpace=wrap;html=1;" vertex="1" parent="_O8LYCDpi1IWfMHmvwUw-1">
          <mxGeometry x="720" y="390" width="80" height="40" as="geometry" />
        </mxCell>
        <mxCell id="_O8LYCDpi1IWfMHmvwUw-12" value="&lt;font style=&quot;font-size: 20px&quot;&gt;For&lt;/font&gt;" style="rounded=0;whiteSpace=wrap;html=1;" vertex="1" parent="_O8LYCDpi1IWfMHmvwUw-1">
          <mxGeometry x="860" y="390" width="80" height="40" as="geometry" />
        </mxCell>
        <mxCell id="_O8LYCDpi1IWfMHmvwUw-13" value="" style="endArrow=classic;html=1;exitX=0.25;exitY=1;exitDx=0;exitDy=0;entryX=0.5;entryY=0;entryDx=0;entryDy=0;" edge="1" parent="_O8LYCDpi1IWfMHmvwUw-1" source="_O8LYCDpi1IWfMHmvwUw-6" target="_O8LYCDpi1IWfMHmvwUw-11">
          <mxGeometry width="50" height="50" relative="1" as="geometry">
            <mxPoint x="690" y="470" as="sourcePoint" />
            <mxPoint x="770" y="390" as="targetPoint" />
          </mxGeometry>
        </mxCell>
        <mxCell id="_O8LYCDpi1IWfMHmvwUw-14" value="" style="endArrow=classic;html=1;exitX=0.75;exitY=1;exitDx=0;exitDy=0;" edge="1" parent="_O8LYCDpi1IWfMHmvwUw-1" source="_O8LYCDpi1IWfMHmvwUw-6" target="_O8LYCDpi1IWfMHmvwUw-12">
          <mxGeometry width="50" height="50" relative="1" as="geometry">
            <mxPoint x="690" y="470" as="sourcePoint" />
            <mxPoint x="740" y="420" as="targetPoint" />
          </mxGeometry>
        </mxCell>
        <mxCell id="_O8LYCDpi1IWfMHmvwUw-15" value="&lt;font style=&quot;font-size: 20px&quot;&gt;AST&lt;/font&gt;" style="rounded=0;whiteSpace=wrap;html=1;" vertex="1" parent="_O8LYCDpi1IWfMHmvwUw-1">
          <mxGeometry x="414" y="50" width="80" height="40" as="geometry" />
        </mxCell>
        <mxCell id="_O8LYCDpi1IWfMHmvwUw-16" value="&lt;span style=&quot;font-size: 20px&quot;&gt;GlobalPart&lt;/span&gt;" style="rounded=0;whiteSpace=wrap;html=1;" vertex="1" parent="_O8LYCDpi1IWfMHmvwUw-1">
          <mxGeometry x="240" y="130" width="120" height="40" as="geometry" />
        </mxCell>
        <mxCell id="_O8LYCDpi1IWfMHmvwUw-17" value="&lt;span style=&quot;font-size: 20px&quot;&gt;Main&lt;/span&gt;" style="rounded=0;whiteSpace=wrap;html=1;" vertex="1" parent="_O8LYCDpi1IWfMHmvwUw-1">
          <mxGeometry x="414" y="130" width="80" height="40" as="geometry" />
        </mxCell>
        <mxCell id="_O8LYCDpi1IWfMHmvwUw-18" value="&lt;font style=&quot;font-size: 20px&quot;&gt;FunctionPart&lt;br&gt;&lt;/font&gt;" style="rounded=0;whiteSpace=wrap;html=1;" vertex="1" parent="_O8LYCDpi1IWfMHmvwUw-1">
          <mxGeometry x="560" y="130" width="130" height="40" as="geometry" />
        </mxCell>
        <mxCell id="_O8LYCDpi1IWfMHmvwUw-19" value="" style="endArrow=classic;html=1;exitX=0.25;exitY=1;exitDx=0;exitDy=0;entryX=0.75;entryY=0;entryDx=0;entryDy=0;" edge="1" parent="_O8LYCDpi1IWfMHmvwUw-1" source="_O8LYCDpi1IWfMHmvwUw-15" target="_O8LYCDpi1IWfMHmvwUw-16">
          <mxGeometry width="50" height="50" relative="1" as="geometry">
            <mxPoint x="490" y="220" as="sourcePoint" />
            <mxPoint x="540" y="170" as="targetPoint" />
          </mxGeometry>
        </mxCell>
        <mxCell id="_O8LYCDpi1IWfMHmvwUw-20" value="" style="endArrow=classic;html=1;exitX=0.5;exitY=1;exitDx=0;exitDy=0;" edge="1" parent="_O8LYCDpi1IWfMHmvwUw-1" source="_O8LYCDpi1IWfMHmvwUw-15" target="_O8LYCDpi1IWfMHmvwUw-17">
          <mxGeometry width="50" height="50" relative="1" as="geometry">
            <mxPoint x="490" y="220" as="sourcePoint" />
            <mxPoint x="540" y="170" as="targetPoint" />
          </mxGeometry>
        </mxCell>
        <mxCell id="_O8LYCDpi1IWfMHmvwUw-21" value="" style="endArrow=classic;html=1;entryX=0.25;entryY=0;entryDx=0;entryDy=0;" edge="1" parent="_O8LYCDpi1IWfMHmvwUw-1" source="_O8LYCDpi1IWfMHmvwUw-15" target="_O8LYCDpi1IWfMHmvwUw-18">
          <mxGeometry width="50" height="50" relative="1" as="geometry">
            <mxPoint x="490" y="220" as="sourcePoint" />
            <mxPoint x="540" y="170" as="targetPoint" />
          </mxGeometry>
        </mxCell>
        <mxCell id="_O8LYCDpi1IWfMHmvwUw-22" value="&lt;font style=&quot;font-size: 20px&quot;&gt;Assignment&lt;/font&gt;" style="rounded=0;whiteSpace=wrap;html=1;" vertex="1" parent="_O8LYCDpi1IWfMHmvwUw-1">
          <mxGeometry x="518.5" y="310" width="110" height="40" as="geometry" />
        </mxCell>
        <mxCell id="_O8LYCDpi1IWfMHmvwUw-23" value="" style="endArrow=classic;html=1;exitX=0.5;exitY=1;exitDx=0;exitDy=0;entryX=0.25;entryY=0;entryDx=0;entryDy=0;" edge="1" parent="_O8LYCDpi1IWfMHmvwUw-1" source="_O8LYCDpi1IWfMHmvwUw-2" target="_O8LYCDpi1IWfMHmvwUw-22">
          <mxGeometry width="50" height="50" relative="1" as="geometry">
            <mxPoint x="560" y="430" as="sourcePoint" />
            <mxPoint x="560" y="310" as="targetPoint" />
          </mxGeometry>
        </mxCell>
        <mxCell id="_O8LYCDpi1IWfMHmvwUw-25" value="&lt;font style=&quot;font-size: 20px&quot;&gt;Variable Decl&lt;/font&gt;" style="rounded=0;whiteSpace=wrap;html=1;" vertex="1" parent="_O8LYCDpi1IWfMHmvwUw-1">
          <mxGeometry x="90" y="400" width="80" height="50" as="geometry" />
        </mxCell>
        <mxCell id="_O8LYCDpi1IWfMHmvwUw-26" value="&lt;font style=&quot;font-size: 20px&quot;&gt;Array Decl&lt;/font&gt;" style="rounded=0;whiteSpace=wrap;html=1;" vertex="1" parent="_O8LYCDpi1IWfMHmvwUw-1">
          <mxGeometry x="190" y="400" width="80" height="50" as="geometry" />
        </mxCell>
        <mxCell id="_O8LYCDpi1IWfMHmvwUw-27" value="&lt;font style=&quot;font-size: 20px&quot;&gt;ProtoType Decl&lt;/font&gt;" style="rounded=0;whiteSpace=wrap;html=1;" vertex="1" parent="_O8LYCDpi1IWfMHmvwUw-1">
          <mxGeometry x="290" y="400" width="100" height="50" as="geometry" />
        </mxCell>
        <mxCell id="_O8LYCDpi1IWfMHmvwUw-28" value="" style="endArrow=classic;html=1;exitX=0.25;exitY=1;exitDx=0;exitDy=0;entryX=0.5;entryY=0;entryDx=0;entryDy=0;" edge="1" parent="_O8LYCDpi1IWfMHmvwUw-1" source="_O8LYCDpi1IWfMHmvwUw-3" target="_O8LYCDpi1IWfMHmvwUw-25">
          <mxGeometry width="50" height="50" relative="1" as="geometry">
            <mxPoint x="355" y="430" as="sourcePoint" />
            <mxPoint x="465" y="450" as="targetPoint" />
          </mxGeometry>
        </mxCell>
        <mxCell id="_O8LYCDpi1IWfMHmvwUw-29" value="" style="endArrow=classic;html=1;exitX=0.5;exitY=1;exitDx=0;exitDy=0;entryX=0.5;entryY=0;entryDx=0;entryDy=0;" edge="1" parent="_O8LYCDpi1IWfMHmvwUw-1" source="_O8LYCDpi1IWfMHmvwUw-3" target="_O8LYCDpi1IWfMHmvwUw-26">
          <mxGeometry width="50" height="50" relative="1" as="geometry">
            <mxPoint x="375" y="430" as="sourcePoint" />
            <mxPoint x="465" y="450" as="targetPoint" />
          </mxGeometry>
        </mxCell>
        <mxCell id="_O8LYCDpi1IWfMHmvwUw-30" value="" style="endArrow=classic;html=1;exitX=0.75;exitY=1;exitDx=0;exitDy=0;entryX=0.5;entryY=0;entryDx=0;entryDy=0;" edge="1" parent="_O8LYCDpi1IWfMHmvwUw-1" source="_O8LYCDpi1IWfMHmvwUw-3" target="_O8LYCDpi1IWfMHmvwUw-27">
          <mxGeometry width="50" height="50" relative="1" as="geometry">
            <mxPoint x="395" y="430" as="sourcePoint" />
            <mxPoint x="465" y="450" as="targetPoint" />
          </mxGeometry>
        </mxCell>
        <mxCell id="_O8LYCDpi1IWfMHmvwUw-35" value="" style="endArrow=classic;html=1;exitX=0.25;exitY=1;exitDx=0;exitDy=0;entryX=0.25;entryY=0;entryDx=0;entryDy=0;" edge="1" parent="_O8LYCDpi1IWfMHmvwUw-1" source="_O8LYCDpi1IWfMHmvwUw-4" target="_O8LYCDpi1IWfMHmvwUw-44">
          <mxGeometry width="50" height="50" relative="1" as="geometry">
            <mxPoint x="428.5" y="490" as="sourcePoint" />
            <mxPoint x="436" y="480" as="targetPoint" />
          </mxGeometry>
        </mxCell>
        <mxCell id="_O8LYCDpi1IWfMHmvwUw-36" value="" style="endArrow=classic;html=1;exitX=0.5;exitY=1;exitDx=0;exitDy=0;entryX=0.25;entryY=0;entryDx=0;entryDy=0;" edge="1" parent="_O8LYCDpi1IWfMHmvwUw-1" source="_O8LYCDpi1IWfMHmvwUw-4" target="_O8LYCDpi1IWfMHmvwUw-49">
          <mxGeometry width="50" height="50" relative="1" as="geometry">
            <mxPoint x="448.5" y="490" as="sourcePoint" />
            <mxPoint x="578.5" y="480" as="targetPoint" />
          </mxGeometry>
        </mxCell>
        <mxCell id="_O8LYCDpi1IWfMHmvwUw-37" value="" style="endArrow=classic;html=1;exitX=0.75;exitY=1;exitDx=0;exitDy=0;entryX=0.25;entryY=0;entryDx=0;entryDy=0;" edge="1" parent="_O8LYCDpi1IWfMHmvwUw-1" source="_O8LYCDpi1IWfMHmvwUw-4" target="_O8LYCDpi1IWfMHmvwUw-45">
          <mxGeometry width="50" height="50" relative="1" as="geometry">
            <mxPoint x="468.5" y="490" as="sourcePoint" />
            <mxPoint x="726" y="480" as="targetPoint" />
          </mxGeometry>
        </mxCell>
        <mxCell id="_O8LYCDpi1IWfMHmvwUw-44" value="&lt;font style=&quot;font-size: 20px&quot;&gt;Value&lt;/font&gt;" style="rounded=0;whiteSpace=wrap;html=1;" vertex="1" parent="_O8LYCDpi1IWfMHmvwUw-1">
          <mxGeometry x="370" y="500" width="75" height="40" as="geometry" />
        </mxCell>
        <mxCell id="_O8LYCDpi1IWfMHmvwUw-45" value="&lt;font style=&quot;font-size: 20px&quot;&gt;FuncCall&lt;/font&gt;" style="rounded=0;whiteSpace=wrap;html=1;" vertex="1" parent="_O8LYCDpi1IWfMHmvwUw-1">
          <mxGeometry x="590" y="510" width="100" height="40" as="geometry" />
        </mxCell>
        <mxCell id="_O8LYCDpi1IWfMHmvwUw-49" value="&lt;font style=&quot;font-size: 20px&quot;&gt;Identifier&lt;/font&gt;" style="rounded=0;whiteSpace=wrap;html=1;" vertex="1" parent="_O8LYCDpi1IWfMHmvwUw-1">
          <mxGeometry x="480.5" y="510" width="99" height="40" as="geometry" />
        </mxCell>
        <mxCell id="_O8LYCDpi1IWfMHmvwUw-50" value="&lt;span style=&quot;font-size: 20px&quot;&gt;ArrayExpr&lt;/span&gt;" style="rounded=0;whiteSpace=wrap;html=1;" vertex="1" parent="_O8LYCDpi1IWfMHmvwUw-1">
          <mxGeometry x="697.5" y="510" width="100" height="40" as="geometry" />
        </mxCell>
        <mxCell id="PvTrowNv0lt64NNmK7a_-1" value="" style="endArrow=classic;html=1;exitX=1;exitY=1;exitDx=0;exitDy=0;entryX=0.5;entryY=0;entryDx=0;entryDy=0;" edge="1" parent="_O8LYCDpi1IWfMHmvwUw-1" source="_O8LYCDpi1IWfMHmvwUw-4" target="_O8LYCDpi1IWfMHmvwUw-50">
          <mxGeometry width="50" height="50" relative="1" as="geometry">
            <mxPoint x="520" y="520" as="sourcePoint" />
            <mxPoint x="570" y="470" as="targetPoint" />
          </mxGeometry>
        </mxCell>
        <mxCell id="PvTrowNv0lt64NNmK7a_-2" value="&lt;span style=&quot;font-size: 20px&quot;&gt;Integer&lt;/span&gt;" style="rounded=0;whiteSpace=wrap;html=1;" vertex="1" parent="_O8LYCDpi1IWfMHmvwUw-1">
          <mxGeometry x="150" y="580" width="75" height="40" as="geometry" />
        </mxCell>
        <mxCell id="PvTrowNv0lt64NNmK7a_-3" value="&lt;font style=&quot;font-size: 20px&quot;&gt;Float&lt;/font&gt;" style="rounded=0;whiteSpace=wrap;html=1;" vertex="1" parent="_O8LYCDpi1IWfMHmvwUw-1">
          <mxGeometry x="260" y="580" width="75" height="40" as="geometry" />
        </mxCell>
        <mxCell id="PvTrowNv0lt64NNmK7a_-4" value="&lt;font style=&quot;font-size: 20px&quot;&gt;Bool&lt;/font&gt;" style="rounded=0;whiteSpace=wrap;html=1;" vertex="1" parent="_O8LYCDpi1IWfMHmvwUw-1">
          <mxGeometry x="360" y="580" width="75" height="40" as="geometry" />
        </mxCell>
        <mxCell id="PvTrowNv0lt64NNmK7a_-5" value="&lt;font style=&quot;font-size: 20px&quot;&gt;String&lt;/font&gt;" style="rounded=0;whiteSpace=wrap;html=1;" vertex="1" parent="_O8LYCDpi1IWfMHmvwUw-1">
          <mxGeometry x="460" y="580" width="75" height="40" as="geometry" />
        </mxCell>
        <mxCell id="PvTrowNv0lt64NNmK7a_-6" value="&lt;font style=&quot;font-size: 20px&quot;&gt;Void&lt;/font&gt;" style="rounded=0;whiteSpace=wrap;html=1;" vertex="1" parent="_O8LYCDpi1IWfMHmvwUw-1">
          <mxGeometry x="560" y="580" width="75" height="40" as="geometry" />
        </mxCell>
        <mxCell id="PvTrowNv0lt64NNmK7a_-7" value="" style="endArrow=classic;html=1;exitX=0;exitY=1;exitDx=0;exitDy=0;entryX=0.5;entryY=0;entryDx=0;entryDy=0;" edge="1" parent="_O8LYCDpi1IWfMHmvwUw-1" source="_O8LYCDpi1IWfMHmvwUw-44" target="PvTrowNv0lt64NNmK7a_-2">
          <mxGeometry width="50" height="50" relative="1" as="geometry">
            <mxPoint x="500" y="680" as="sourcePoint" />
            <mxPoint x="550" y="630" as="targetPoint" />
          </mxGeometry>
        </mxCell>
        <mxCell id="PvTrowNv0lt64NNmK7a_-8" value="" style="endArrow=classic;html=1;exitX=0.25;exitY=1;exitDx=0;exitDy=0;entryX=0.25;entryY=0;entryDx=0;entryDy=0;" edge="1" parent="_O8LYCDpi1IWfMHmvwUw-1" source="_O8LYCDpi1IWfMHmvwUw-44" target="PvTrowNv0lt64NNmK7a_-3">
          <mxGeometry width="50" height="50" relative="1" as="geometry">
            <mxPoint x="500" y="680" as="sourcePoint" />
            <mxPoint x="550" y="630" as="targetPoint" />
          </mxGeometry>
        </mxCell>
        <mxCell id="PvTrowNv0lt64NNmK7a_-9" value="" style="endArrow=classic;html=1;exitX=0.5;exitY=1;exitDx=0;exitDy=0;entryX=0.25;entryY=0;entryDx=0;entryDy=0;" edge="1" parent="_O8LYCDpi1IWfMHmvwUw-1" source="_O8LYCDpi1IWfMHmvwUw-44" target="PvTrowNv0lt64NNmK7a_-4">
          <mxGeometry width="50" height="50" relative="1" as="geometry">
            <mxPoint x="500" y="680" as="sourcePoint" />
            <mxPoint x="550" y="630" as="targetPoint" />
          </mxGeometry>
        </mxCell>
        <mxCell id="PvTrowNv0lt64NNmK7a_-10" value="" style="endArrow=classic;html=1;exitX=0.75;exitY=1;exitDx=0;exitDy=0;entryX=0;entryY=0;entryDx=0;entryDy=0;" edge="1" parent="_O8LYCDpi1IWfMHmvwUw-1" source="_O8LYCDpi1IWfMHmvwUw-44" target="PvTrowNv0lt64NNmK7a_-5">
          <mxGeometry width="50" height="50" relative="1" as="geometry">
            <mxPoint x="500" y="680" as="sourcePoint" />
            <mxPoint x="550" y="630" as="targetPoint" />
          </mxGeometry>
        </mxCell>
        <mxCell id="PvTrowNv0lt64NNmK7a_-11" value="" style="endArrow=classic;html=1;exitX=1;exitY=1;exitDx=0;exitDy=0;entryX=0.25;entryY=0;entryDx=0;entryDy=0;" edge="1" parent="_O8LYCDpi1IWfMHmvwUw-1" source="_O8LYCDpi1IWfMHmvwUw-44" target="PvTrowNv0lt64NNmK7a_-6">
          <mxGeometry width="50" height="50" relative="1" as="geometry">
            <mxPoint x="500" y="680" as="sourcePoint" />
            <mxPoint x="550" y="630" as="targetPoint" />
          </mxGeometry>
        </mxCell>
        <mxCell id="PvTrowNv0lt64NNmK7a_-12" value="&lt;span style=&quot;font-size: 20px&quot;&gt;BinaryExpr&lt;/span&gt;" style="rounded=0;whiteSpace=wrap;html=1;" vertex="1" parent="_O8LYCDpi1IWfMHmvwUw-1">
          <mxGeometry x="810" y="510" width="100" height="40" as="geometry" />
        </mxCell>
        <mxCell id="PvTrowNv0lt64NNmK7a_-13" value="" style="endArrow=classic;html=1;exitX=1;exitY=0.75;exitDx=0;exitDy=0;entryX=0.25;entryY=0;entryDx=0;entryDy=0;" edge="1" parent="_O8LYCDpi1IWfMHmvwUw-1" source="_O8LYCDpi1IWfMHmvwUw-4" target="PvTrowNv0lt64NNmK7a_-12">
          <mxGeometry width="50" height="50" relative="1" as="geometry">
            <mxPoint x="500" y="470" as="sourcePoint" />
            <mxPoint x="550" y="420" as="targetPoint" />
          </mxGeometry>
        </mxCell>
      </root>
    </mxGraphModel>
  </diagram>
  <diagram id="zyGFpdTUJZX0pkvryWbd" name="example">
    <mxGraphModel dx="665" dy="405" grid="1" gridSize="10" guides="1" tooltips="1" connect="1" arrows="1" fold="1" page="1" pageScale="1" pageWidth="827" pageHeight="1169" math="0" shadow="0">
      <root>
        <mxCell id="EHEwBLLDFzp5XDAm-Ewx-0" />
        <mxCell id="EHEwBLLDFzp5XDAm-Ewx-1" parent="EHEwBLLDFzp5XDAm-Ewx-0" />
        <mxCell id="6Pyiwb7LWoMH3Ax1tshR-0" value="&lt;font style=&quot;font-size: 20px&quot;&gt;stmt&lt;/font&gt;" style="rounded=0;whiteSpace=wrap;html=1;" vertex="1" parent="EHEwBLLDFzp5XDAm-Ewx-1">
          <mxGeometry x="375" width="76" height="40" as="geometry" />
        </mxCell>
        <mxCell id="6Pyiwb7LWoMH3Ax1tshR-3" value="&lt;font style=&quot;font-size: 20px&quot;&gt;relation_expr&lt;/font&gt;" style="rounded=0;whiteSpace=wrap;html=1;" vertex="1" parent="EHEwBLLDFzp5XDAm-Ewx-1">
          <mxGeometry x="130" y="65" width="130" height="30" as="geometry" />
        </mxCell>
        <mxCell id="6Pyiwb7LWoMH3Ax1tshR-4" value="&lt;font style=&quot;font-size: 20px&quot;&gt;if&lt;/font&gt;" style="text;html=1;align=center;verticalAlign=middle;resizable=0;points=[];autosize=1;strokeColor=none;" vertex="1" parent="EHEwBLLDFzp5XDAm-Ewx-1">
          <mxGeometry x="75" y="70" width="30" height="20" as="geometry" />
        </mxCell>
        <mxCell id="6Pyiwb7LWoMH3Ax1tshR-5" value="&lt;font style=&quot;font-size: 20px&quot;&gt;if-block&lt;br&gt;(stmtlist)&lt;/font&gt;" style="rounded=0;whiteSpace=wrap;html=1;" vertex="1" parent="EHEwBLLDFzp5XDAm-Ewx-1">
          <mxGeometry x="305" y="57.5" width="90" height="45" as="geometry" />
        </mxCell>
        <mxCell id="6Pyiwb7LWoMH3Ax1tshR-6" value="&lt;font style=&quot;font-size: 20px&quot;&gt;else-block&lt;br&gt;(stmtlist)&lt;/font&gt;" style="rounded=0;whiteSpace=wrap;html=1;" vertex="1" parent="EHEwBLLDFzp5XDAm-Ewx-1">
          <mxGeometry x="595" y="60" width="110" height="45" as="geometry" />
        </mxCell>
        <mxCell id="6Pyiwb7LWoMH3Ax1tshR-7" value="&lt;font style=&quot;font-size: 20px&quot;&gt;(&lt;/font&gt;" style="text;html=1;align=center;verticalAlign=middle;resizable=0;points=[];autosize=1;strokeColor=none;" vertex="1" parent="EHEwBLLDFzp5XDAm-Ewx-1">
          <mxGeometry x="110" y="70" width="20" height="20" as="geometry" />
        </mxCell>
        <mxCell id="6Pyiwb7LWoMH3Ax1tshR-8" value="&lt;font style=&quot;font-size: 20px&quot;&gt;)&lt;/font&gt;" style="text;html=1;align=center;verticalAlign=middle;resizable=0;points=[];autosize=1;strokeColor=none;" vertex="1" parent="EHEwBLLDFzp5XDAm-Ewx-1">
          <mxGeometry x="260" y="70" width="20" height="20" as="geometry" />
        </mxCell>
        <mxCell id="6Pyiwb7LWoMH3Ax1tshR-9" value="&lt;font style=&quot;font-size: 20px&quot;&gt;{&lt;/font&gt;" style="text;html=1;align=center;verticalAlign=middle;resizable=0;points=[];autosize=1;strokeColor=none;" vertex="1" parent="EHEwBLLDFzp5XDAm-Ewx-1">
          <mxGeometry x="275" y="70" width="20" height="20" as="geometry" />
        </mxCell>
        <mxCell id="6Pyiwb7LWoMH3Ax1tshR-10" value="&lt;font style=&quot;font-size: 20px&quot;&gt;}&lt;/font&gt;" style="text;html=1;align=center;verticalAlign=middle;resizable=0;points=[];autosize=1;strokeColor=none;" vertex="1" parent="EHEwBLLDFzp5XDAm-Ewx-1">
          <mxGeometry x="525" y="72.5" width="20" height="20" as="geometry" />
        </mxCell>
        <mxCell id="6Pyiwb7LWoMH3Ax1tshR-11" value="&lt;font style=&quot;font-size: 20px&quot;&gt;else&lt;/font&gt;" style="text;html=1;align=center;verticalAlign=middle;resizable=0;points=[];autosize=1;strokeColor=none;" vertex="1" parent="EHEwBLLDFzp5XDAm-Ewx-1">
          <mxGeometry x="535" y="72.5" width="50" height="20" as="geometry" />
        </mxCell>
        <mxCell id="6Pyiwb7LWoMH3Ax1tshR-12" value="&lt;font style=&quot;font-size: 20px&quot;&gt;{&lt;/font&gt;" style="text;html=1;align=center;verticalAlign=middle;resizable=0;points=[];autosize=1;strokeColor=none;" vertex="1" parent="EHEwBLLDFzp5XDAm-Ewx-1">
          <mxGeometry x="575" y="72.5" width="20" height="20" as="geometry" />
        </mxCell>
        <mxCell id="6Pyiwb7LWoMH3Ax1tshR-13" value="&lt;font style=&quot;font-size: 20px&quot;&gt;}&lt;/font&gt;" style="text;html=1;align=center;verticalAlign=middle;resizable=0;points=[];autosize=1;strokeColor=none;" vertex="1" parent="EHEwBLLDFzp5XDAm-Ewx-1">
          <mxGeometry x="705" y="72.5" width="20" height="20" as="geometry" />
        </mxCell>
        <mxCell id="6Pyiwb7LWoMH3Ax1tshR-36" value="&lt;font style=&quot;font-size: 20px&quot;&gt;expr_return&lt;/font&gt;" style="rounded=0;whiteSpace=wrap;html=1;" vertex="1" parent="EHEwBLLDFzp5XDAm-Ewx-1">
          <mxGeometry x="409" y="60" width="116" height="40" as="geometry" />
        </mxCell>
        <mxCell id="6Pyiwb7LWoMH3Ax1tshR-37" value="&lt;font style=&quot;font-size: 20px&quot;&gt;relation_expr&lt;/font&gt;" style="rounded=0;whiteSpace=wrap;html=1;" vertex="1" parent="EHEwBLLDFzp5XDAm-Ewx-1">
          <mxGeometry x="130" y="127.5" width="130" height="30" as="geometry" />
        </mxCell>
        <mxCell id="6Pyiwb7LWoMH3Ax1tshR-38" value="&lt;font style=&quot;font-size: 20px&quot;&gt;if&lt;/font&gt;" style="text;html=1;align=center;verticalAlign=middle;resizable=0;points=[];autosize=1;strokeColor=none;" vertex="1" parent="EHEwBLLDFzp5XDAm-Ewx-1">
          <mxGeometry x="75" y="132.5" width="30" height="20" as="geometry" />
        </mxCell>
        <mxCell id="6Pyiwb7LWoMH3Ax1tshR-39" value="&lt;font style=&quot;font-size: 20px&quot;&gt;if-block&lt;br&gt;(stmtlist)&lt;/font&gt;" style="rounded=0;whiteSpace=wrap;html=1;" vertex="1" parent="EHEwBLLDFzp5XDAm-Ewx-1">
          <mxGeometry x="305" y="120" width="90" height="45" as="geometry" />
        </mxCell>
        <mxCell id="6Pyiwb7LWoMH3Ax1tshR-41" value="&lt;font style=&quot;font-size: 20px&quot;&gt;(&lt;/font&gt;" style="text;html=1;align=center;verticalAlign=middle;resizable=0;points=[];autosize=1;strokeColor=none;" vertex="1" parent="EHEwBLLDFzp5XDAm-Ewx-1">
          <mxGeometry x="110" y="132.5" width="20" height="20" as="geometry" />
        </mxCell>
        <mxCell id="6Pyiwb7LWoMH3Ax1tshR-42" value="&lt;font style=&quot;font-size: 20px&quot;&gt;)&lt;/font&gt;" style="text;html=1;align=center;verticalAlign=middle;resizable=0;points=[];autosize=1;strokeColor=none;" vertex="1" parent="EHEwBLLDFzp5XDAm-Ewx-1">
          <mxGeometry x="260" y="132.5" width="20" height="20" as="geometry" />
        </mxCell>
        <mxCell id="6Pyiwb7LWoMH3Ax1tshR-43" value="&lt;font style=&quot;font-size: 20px&quot;&gt;{&lt;/font&gt;" style="text;html=1;align=center;verticalAlign=middle;resizable=0;points=[];autosize=1;strokeColor=none;" vertex="1" parent="EHEwBLLDFzp5XDAm-Ewx-1">
          <mxGeometry x="275" y="132.5" width="20" height="20" as="geometry" />
        </mxCell>
        <mxCell id="6Pyiwb7LWoMH3Ax1tshR-44" value="&lt;font style=&quot;font-size: 20px&quot;&gt;}&lt;/font&gt;" style="text;html=1;align=center;verticalAlign=middle;resizable=0;points=[];autosize=1;strokeColor=none;" vertex="1" parent="EHEwBLLDFzp5XDAm-Ewx-1">
          <mxGeometry x="525" y="135" width="20" height="20" as="geometry" />
        </mxCell>
        <mxCell id="6Pyiwb7LWoMH3Ax1tshR-48" value="&lt;font style=&quot;font-size: 20px&quot;&gt;expr_return&lt;/font&gt;" style="rounded=0;whiteSpace=wrap;html=1;" vertex="1" parent="EHEwBLLDFzp5XDAm-Ewx-1">
          <mxGeometry x="409" y="122.5" width="116" height="40" as="geometry" />
        </mxCell>
        <mxCell id="_t2WYd1QOUu2HLRCie0G-0" value="&lt;font style=&quot;font-size: 20px&quot;&gt;stmt&lt;/font&gt;" style="rounded=0;whiteSpace=wrap;html=1;" vertex="1" parent="EHEwBLLDFzp5XDAm-Ewx-1">
          <mxGeometry x="375" y="210" width="76" height="40" as="geometry" />
        </mxCell>
        <mxCell id="_t2WYd1QOUu2HLRCie0G-1" value="&lt;font style=&quot;font-size: 20px&quot;&gt;assignment&lt;/font&gt;" style="rounded=0;whiteSpace=wrap;html=1;" vertex="1" parent="EHEwBLLDFzp5XDAm-Ewx-1">
          <mxGeometry x="130" y="275" width="105" height="30" as="geometry" />
        </mxCell>
        <mxCell id="_t2WYd1QOUu2HLRCie0G-2" value="&lt;font style=&quot;font-size: 20px&quot;&gt;for&lt;/font&gt;" style="text;html=1;align=center;verticalAlign=middle;resizable=0;points=[];autosize=1;strokeColor=none;" vertex="1" parent="EHEwBLLDFzp5XDAm-Ewx-1">
          <mxGeometry x="70" y="280" width="40" height="20" as="geometry" />
        </mxCell>
        <mxCell id="_t2WYd1QOUu2HLRCie0G-3" value="&lt;span style=&quot;font-size: 20px&quot;&gt;stmtlist&lt;/span&gt;" style="rounded=0;whiteSpace=wrap;html=1;" vertex="1" parent="EHEwBLLDFzp5XDAm-Ewx-1">
          <mxGeometry x="545" y="267.5" width="90" height="45" as="geometry" />
        </mxCell>
        <mxCell id="_t2WYd1QOUu2HLRCie0G-5" value="&lt;font style=&quot;font-size: 20px&quot;&gt;(&lt;/font&gt;" style="text;html=1;align=center;verticalAlign=middle;resizable=0;points=[];autosize=1;strokeColor=none;" vertex="1" parent="EHEwBLLDFzp5XDAm-Ewx-1">
          <mxGeometry x="110" y="280" width="20" height="20" as="geometry" />
        </mxCell>
        <mxCell id="_t2WYd1QOUu2HLRCie0G-6" value="&lt;font style=&quot;font-size: 20px&quot;&gt;;&lt;/font&gt;" style="text;html=1;align=center;verticalAlign=middle;resizable=0;points=[];autosize=1;strokeColor=none;" vertex="1" parent="EHEwBLLDFzp5XDAm-Ewx-1">
          <mxGeometry x="380" y="280" width="20" height="20" as="geometry" />
        </mxCell>
        <mxCell id="_t2WYd1QOUu2HLRCie0G-7" value="&lt;font style=&quot;font-size: 20px&quot;&gt;)&lt;/font&gt;" style="text;html=1;align=center;verticalAlign=middle;resizable=0;points=[];autosize=1;strokeColor=none;" vertex="1" parent="EHEwBLLDFzp5XDAm-Ewx-1">
          <mxGeometry x="505" y="280" width="20" height="20" as="geometry" />
        </mxCell>
        <mxCell id="_t2WYd1QOUu2HLRCie0G-12" value="&lt;font style=&quot;font-size: 20px&quot;&gt;expr_return&lt;/font&gt;" style="rounded=0;whiteSpace=wrap;html=1;" vertex="1" parent="EHEwBLLDFzp5XDAm-Ewx-1">
          <mxGeometry x="640" y="270" width="120" height="40" as="geometry" />
        </mxCell>
        <mxCell id="_t2WYd1QOUu2HLRCie0G-21" value="&lt;font style=&quot;font-size: 20px&quot;&gt;;&lt;/font&gt;" style="text;html=1;align=center;verticalAlign=middle;resizable=0;points=[];autosize=1;strokeColor=none;" vertex="1" parent="EHEwBLLDFzp5XDAm-Ewx-1">
          <mxGeometry x="235" y="280" width="20" height="20" as="geometry" />
        </mxCell>
        <mxCell id="_t2WYd1QOUu2HLRCie0G-22" value="&lt;font style=&quot;font-size: 20px&quot;&gt;relation_expr&lt;/font&gt;" style="rounded=0;whiteSpace=wrap;html=1;" vertex="1" parent="EHEwBLLDFzp5XDAm-Ewx-1">
          <mxGeometry x="255" y="275" width="125" height="30" as="geometry" />
        </mxCell>
        <mxCell id="_t2WYd1QOUu2HLRCie0G-23" value="&lt;font style=&quot;font-size: 20px&quot;&gt;assignment&lt;/font&gt;" style="rounded=0;whiteSpace=wrap;html=1;" vertex="1" parent="EHEwBLLDFzp5XDAm-Ewx-1">
          <mxGeometry x="395" y="275" width="110" height="30" as="geometry" />
        </mxCell>
        <mxCell id="_t2WYd1QOUu2HLRCie0G-25" value="&lt;font style=&quot;font-size: 20px&quot;&gt;{&lt;/font&gt;" style="text;html=1;align=center;verticalAlign=middle;resizable=0;points=[];autosize=1;strokeColor=none;" vertex="1" parent="EHEwBLLDFzp5XDAm-Ewx-1">
          <mxGeometry x="525" y="280" width="20" height="20" as="geometry" />
        </mxCell>
        <mxCell id="_t2WYd1QOUu2HLRCie0G-26" value="&lt;font style=&quot;font-size: 20px&quot;&gt;}&lt;/font&gt;" style="text;html=1;align=center;verticalAlign=middle;resizable=0;points=[];autosize=1;strokeColor=none;" vertex="1" parent="EHEwBLLDFzp5XDAm-Ewx-1">
          <mxGeometry x="760" y="280" width="20" height="20" as="geometry" />
        </mxCell>
        <mxCell id="aQtYCV0ZBQABK-x9QqSu-0" value="&lt;font style=&quot;font-size: 20px&quot;&gt;stmt&lt;/font&gt;" style="rounded=0;whiteSpace=wrap;html=1;" vertex="1" parent="EHEwBLLDFzp5XDAm-Ewx-1">
          <mxGeometry x="369" y="360" width="76" height="40" as="geometry" />
        </mxCell>
        <mxCell id="aQtYCV0ZBQABK-x9QqSu-2" value="&lt;font style=&quot;font-size: 20px&quot;&gt;while&lt;/font&gt;" style="text;html=1;align=center;verticalAlign=middle;resizable=0;points=[];autosize=1;strokeColor=none;" vertex="1" parent="EHEwBLLDFzp5XDAm-Ewx-1">
          <mxGeometry x="182.5" y="432.5" width="60" height="20" as="geometry" />
        </mxCell>
        <mxCell id="aQtYCV0ZBQABK-x9QqSu-3" value="&lt;span style=&quot;font-size: 20px&quot;&gt;stmtlist&lt;/span&gt;" style="rounded=0;whiteSpace=wrap;html=1;" vertex="1" parent="EHEwBLLDFzp5XDAm-Ewx-1">
          <mxGeometry x="408.5" y="420" width="90" height="45" as="geometry" />
        </mxCell>
        <mxCell id="aQtYCV0ZBQABK-x9QqSu-4" value="&lt;font style=&quot;font-size: 20px&quot;&gt;(&lt;/font&gt;" style="text;html=1;align=center;verticalAlign=middle;resizable=0;points=[];autosize=1;strokeColor=none;" vertex="1" parent="EHEwBLLDFzp5XDAm-Ewx-1">
          <mxGeometry x="232.5" y="432.5" width="20" height="20" as="geometry" />
        </mxCell>
        <mxCell id="aQtYCV0ZBQABK-x9QqSu-6" value="&lt;font style=&quot;font-size: 20px&quot;&gt;)&lt;/font&gt;" style="text;html=1;align=center;verticalAlign=middle;resizable=0;points=[];autosize=1;strokeColor=none;" vertex="1" parent="EHEwBLLDFzp5XDAm-Ewx-1">
          <mxGeometry x="377.5" y="432.5" width="20" height="20" as="geometry" />
        </mxCell>
        <mxCell id="aQtYCV0ZBQABK-x9QqSu-7" value="&lt;font style=&quot;font-size: 20px&quot;&gt;expr_return&lt;/font&gt;" style="rounded=0;whiteSpace=wrap;html=1;" vertex="1" parent="EHEwBLLDFzp5XDAm-Ewx-1">
          <mxGeometry x="503.5" y="422.5" width="120" height="40" as="geometry" />
        </mxCell>
        <mxCell id="aQtYCV0ZBQABK-x9QqSu-9" value="&lt;font style=&quot;font-size: 20px&quot;&gt;relation_expr&lt;/font&gt;" style="rounded=0;whiteSpace=wrap;html=1;" vertex="1" parent="EHEwBLLDFzp5XDAm-Ewx-1">
          <mxGeometry x="252.5" y="427.5" width="125" height="30" as="geometry" />
        </mxCell>
        <mxCell id="aQtYCV0ZBQABK-x9QqSu-11" value="&lt;font style=&quot;font-size: 20px&quot;&gt;{&lt;/font&gt;" style="text;html=1;align=center;verticalAlign=middle;resizable=0;points=[];autosize=1;strokeColor=none;" vertex="1" parent="EHEwBLLDFzp5XDAm-Ewx-1">
          <mxGeometry x="388.5" y="432.5" width="20" height="20" as="geometry" />
        </mxCell>
        <mxCell id="aQtYCV0ZBQABK-x9QqSu-12" value="&lt;font style=&quot;font-size: 20px&quot;&gt;}&lt;/font&gt;" style="text;html=1;align=center;verticalAlign=middle;resizable=0;points=[];autosize=1;strokeColor=none;" vertex="1" parent="EHEwBLLDFzp5XDAm-Ewx-1">
          <mxGeometry x="623.5" y="432.5" width="20" height="20" as="geometry" />
        </mxCell>
        <mxCell id="L6fCoFAhJMWbu-lNJkCf-0" value="&lt;font style=&quot;font-size: 20px&quot;&gt;Decl&lt;/font&gt;" style="rounded=0;whiteSpace=wrap;html=1;" vertex="1" parent="EHEwBLLDFzp5XDAm-Ewx-1">
          <mxGeometry x="354.5" y="540" width="76" height="40" as="geometry" />
        </mxCell>
        <mxCell id="L6fCoFAhJMWbu-lNJkCf-2" value="&lt;span style=&quot;font-size: 20px&quot;&gt;ProtoType&lt;/span&gt;" style="rounded=0;whiteSpace=wrap;html=1;" vertex="1" parent="EHEwBLLDFzp5XDAm-Ewx-1">
          <mxGeometry x="347.5" y="602.5" width="107.5" height="45" as="geometry" />
        </mxCell>
        <mxCell id="L6fCoFAhJMWbu-lNJkCf-5" value="&lt;span style=&quot;font-size: 20px&quot;&gt;Type&lt;/span&gt;" style="rounded=0;whiteSpace=wrap;html=1;" vertex="1" parent="EHEwBLLDFzp5XDAm-Ewx-1">
          <mxGeometry x="260" y="670" width="67.5" height="40" as="geometry" />
        </mxCell>
        <mxCell id="L6fCoFAhJMWbu-lNJkCf-9" value="&lt;span style=&quot;font-size: 20px&quot;&gt;Id&lt;/span&gt;" style="rounded=0;whiteSpace=wrap;html=1;" vertex="1" parent="EHEwBLLDFzp5XDAm-Ewx-1">
          <mxGeometry x="352.5" y="670" width="67.5" height="40" as="geometry" />
        </mxCell>
        <mxCell id="L6fCoFAhJMWbu-lNJkCf-10" value="&lt;span style=&quot;font-size: 20px&quot;&gt;ParamDecl&lt;/span&gt;" style="rounded=0;whiteSpace=wrap;html=1;" vertex="1" parent="EHEwBLLDFzp5XDAm-Ewx-1">
          <mxGeometry x="456" y="670" width="126.5" height="40" as="geometry" />
        </mxCell>
        <mxCell id="L6fCoFAhJMWbu-lNJkCf-11" value="&lt;span style=&quot;font-size: 20px&quot;&gt;Variable Decl&lt;/span&gt;" style="rounded=0;whiteSpace=wrap;html=1;" vertex="1" parent="EHEwBLLDFzp5XDAm-Ewx-1">
          <mxGeometry x="424.5" y="730" width="85" height="50" as="geometry" />
        </mxCell>
        <mxCell id="L6fCoFAhJMWbu-lNJkCf-18" value="" style="edgeStyle=orthogonalEdgeStyle;rounded=0;orthogonalLoop=1;jettySize=auto;html=1;" edge="1" parent="EHEwBLLDFzp5XDAm-Ewx-1" source="L6fCoFAhJMWbu-lNJkCf-12" target="L6fCoFAhJMWbu-lNJkCf-15">
          <mxGeometry relative="1" as="geometry" />
        </mxCell>
        <mxCell id="L6fCoFAhJMWbu-lNJkCf-12" value="&lt;span style=&quot;font-size: 20px&quot;&gt;Array Decl&lt;/span&gt;" style="rounded=0;whiteSpace=wrap;html=1;" vertex="1" parent="EHEwBLLDFzp5XDAm-Ewx-1">
          <mxGeometry x="552.5" y="730" width="82.5" height="50" as="geometry" />
        </mxCell>
        <mxCell id="L6fCoFAhJMWbu-lNJkCf-13" value="&lt;span style=&quot;font-size: 20px&quot;&gt;Type&lt;/span&gt;" style="rounded=0;whiteSpace=wrap;html=1;" vertex="1" parent="EHEwBLLDFzp5XDAm-Ewx-1">
          <mxGeometry x="360.75" y="800" width="75.5" height="40" as="geometry" />
        </mxCell>
        <mxCell id="L6fCoFAhJMWbu-lNJkCf-14" value="&lt;span style=&quot;font-size: 20px&quot;&gt;id&lt;/span&gt;" style="rounded=0;whiteSpace=wrap;html=1;" vertex="1" parent="EHEwBLLDFzp5XDAm-Ewx-1">
          <mxGeometry x="459.5" y="800" width="75.5" height="40" as="geometry" />
        </mxCell>
        <mxCell id="L6fCoFAhJMWbu-lNJkCf-15" value="&lt;span style=&quot;font-size: 20px&quot;&gt;Type&lt;/span&gt;" style="rounded=0;whiteSpace=wrap;html=1;" vertex="1" parent="EHEwBLLDFzp5XDAm-Ewx-1">
          <mxGeometry x="559.5" y="800" width="75.5" height="40" as="geometry" />
        </mxCell>
        <mxCell id="L6fCoFAhJMWbu-lNJkCf-16" value="&lt;span style=&quot;font-size: 20px&quot;&gt;Id&lt;/span&gt;" style="rounded=0;whiteSpace=wrap;html=1;" vertex="1" parent="EHEwBLLDFzp5XDAm-Ewx-1">
          <mxGeometry x="677.25" y="800" width="75.5" height="40" as="geometry" />
        </mxCell>
        <mxCell id="L6fCoFAhJMWbu-lNJkCf-19" value="&lt;font style=&quot;font-size: 20px&quot;&gt;[ ]&lt;/font&gt;" style="text;html=1;align=center;verticalAlign=middle;resizable=0;points=[];autosize=1;strokeColor=none;" vertex="1" parent="EHEwBLLDFzp5XDAm-Ewx-1">
          <mxGeometry x="635" y="810" width="30" height="20" as="geometry" />
        </mxCell>
        <mxCell id="L6fCoFAhJMWbu-lNJkCf-20" value="" style="endArrow=classic;html=1;exitX=1;exitY=0.5;exitDx=0;exitDy=0;entryX=0.25;entryY=0;entryDx=0;entryDy=0;" edge="1" parent="EHEwBLLDFzp5XDAm-Ewx-1" source="L6fCoFAhJMWbu-lNJkCf-12" target="L6fCoFAhJMWbu-lNJkCf-16">
          <mxGeometry width="50" height="50" relative="1" as="geometry">
            <mxPoint x="385" y="920" as="sourcePoint" />
            <mxPoint x="435" y="870" as="targetPoint" />
          </mxGeometry>
        </mxCell>
        <mxCell id="L6fCoFAhJMWbu-lNJkCf-21" value="" style="endArrow=classic;html=1;exitX=0.25;exitY=1;exitDx=0;exitDy=0;" edge="1" parent="EHEwBLLDFzp5XDAm-Ewx-1" source="L6fCoFAhJMWbu-lNJkCf-11">
          <mxGeometry width="50" height="50" relative="1" as="geometry">
            <mxPoint x="385" y="920" as="sourcePoint" />
            <mxPoint x="405" y="800" as="targetPoint" />
          </mxGeometry>
        </mxCell>
        <mxCell id="L6fCoFAhJMWbu-lNJkCf-22" value="" style="endArrow=classic;html=1;exitX=0.75;exitY=1;exitDx=0;exitDy=0;entryX=0.5;entryY=0;entryDx=0;entryDy=0;" edge="1" parent="EHEwBLLDFzp5XDAm-Ewx-1" source="L6fCoFAhJMWbu-lNJkCf-11" target="L6fCoFAhJMWbu-lNJkCf-14">
          <mxGeometry width="50" height="50" relative="1" as="geometry">
            <mxPoint x="385" y="920" as="sourcePoint" />
            <mxPoint x="435" y="870" as="targetPoint" />
          </mxGeometry>
        </mxCell>
        <mxCell id="L6fCoFAhJMWbu-lNJkCf-23" value="" style="endArrow=classic;html=1;exitX=0.25;exitY=1;exitDx=0;exitDy=0;" edge="1" parent="EHEwBLLDFzp5XDAm-Ewx-1" source="L6fCoFAhJMWbu-lNJkCf-10" target="L6fCoFAhJMWbu-lNJkCf-11">
          <mxGeometry width="50" height="50" relative="1" as="geometry">
            <mxPoint x="385" y="820" as="sourcePoint" />
            <mxPoint x="435" y="770" as="targetPoint" />
          </mxGeometry>
        </mxCell>
        <mxCell id="L6fCoFAhJMWbu-lNJkCf-24" value="" style="endArrow=classic;html=1;exitX=0.75;exitY=1;exitDx=0;exitDy=0;entryX=0.25;entryY=0;entryDx=0;entryDy=0;" edge="1" parent="EHEwBLLDFzp5XDAm-Ewx-1" source="L6fCoFAhJMWbu-lNJkCf-10" target="L6fCoFAhJMWbu-lNJkCf-12">
          <mxGeometry width="50" height="50" relative="1" as="geometry">
            <mxPoint x="385" y="820" as="sourcePoint" />
            <mxPoint x="435" y="770" as="targetPoint" />
          </mxGeometry>
        </mxCell>
        <mxCell id="L6fCoFAhJMWbu-lNJkCf-25" value="" style="endArrow=classic;html=1;exitX=0.25;exitY=1;exitDx=0;exitDy=0;entryX=0.5;entryY=0;entryDx=0;entryDy=0;" edge="1" parent="EHEwBLLDFzp5XDAm-Ewx-1" source="L6fCoFAhJMWbu-lNJkCf-2" target="L6fCoFAhJMWbu-lNJkCf-5">
          <mxGeometry width="50" height="50" relative="1" as="geometry">
            <mxPoint x="385" y="720" as="sourcePoint" />
            <mxPoint x="435" y="670" as="targetPoint" />
          </mxGeometry>
        </mxCell>
        <mxCell id="L6fCoFAhJMWbu-lNJkCf-26" value="" style="endArrow=classic;html=1;exitX=0.5;exitY=1;exitDx=0;exitDy=0;entryX=0.75;entryY=0;entryDx=0;entryDy=0;" edge="1" parent="EHEwBLLDFzp5XDAm-Ewx-1" source="L6fCoFAhJMWbu-lNJkCf-2" target="L6fCoFAhJMWbu-lNJkCf-9">
          <mxGeometry width="50" height="50" relative="1" as="geometry">
            <mxPoint x="385" y="720" as="sourcePoint" />
            <mxPoint x="435" y="670" as="targetPoint" />
          </mxGeometry>
        </mxCell>
        <mxCell id="L6fCoFAhJMWbu-lNJkCf-27" value="" style="endArrow=classic;html=1;entryX=0.25;entryY=0;entryDx=0;entryDy=0;exitX=0.75;exitY=1;exitDx=0;exitDy=0;" edge="1" parent="EHEwBLLDFzp5XDAm-Ewx-1" source="L6fCoFAhJMWbu-lNJkCf-2" target="L6fCoFAhJMWbu-lNJkCf-10">
          <mxGeometry width="50" height="50" relative="1" as="geometry">
            <mxPoint x="435" y="660" as="sourcePoint" />
            <mxPoint x="435" y="670" as="targetPoint" />
          </mxGeometry>
        </mxCell>
        <mxCell id="L6fCoFAhJMWbu-lNJkCf-28" value="" style="endArrow=classic;html=1;exitX=0.5;exitY=1;exitDx=0;exitDy=0;" edge="1" parent="EHEwBLLDFzp5XDAm-Ewx-1" source="L6fCoFAhJMWbu-lNJkCf-0" target="L6fCoFAhJMWbu-lNJkCf-2">
          <mxGeometry width="50" height="50" relative="1" as="geometry">
            <mxPoint x="385" y="720" as="sourcePoint" />
            <mxPoint x="405" y="600" as="targetPoint" />
          </mxGeometry>
        </mxCell>
        <mxCell id="5dKcU01m2QW8PNFrroyE-5" style="edgeStyle=orthogonalEdgeStyle;rounded=0;orthogonalLoop=1;jettySize=auto;html=1;" edge="1" parent="EHEwBLLDFzp5XDAm-Ewx-1" source="5dKcU01m2QW8PNFrroyE-0" target="5dKcU01m2QW8PNFrroyE-1">
          <mxGeometry relative="1" as="geometry" />
        </mxCell>
        <mxCell id="5dKcU01m2QW8PNFrroyE-6" style="edgeStyle=orthogonalEdgeStyle;rounded=0;orthogonalLoop=1;jettySize=auto;html=1;entryX=0.193;entryY=0.022;entryDx=0;entryDy=0;entryPerimeter=0;" edge="1" parent="EHEwBLLDFzp5XDAm-Ewx-1" source="5dKcU01m2QW8PNFrroyE-0" target="5dKcU01m2QW8PNFrroyE-2">
          <mxGeometry relative="1" as="geometry" />
        </mxCell>
        <mxCell id="5dKcU01m2QW8PNFrroyE-0" value="&lt;font style=&quot;font-size: 20px&quot;&gt;-&lt;/font&gt;" style="text;html=1;align=center;verticalAlign=middle;resizable=0;points=[];autosize=1;strokeColor=none;" vertex="1" parent="EHEwBLLDFzp5XDAm-Ewx-1">
          <mxGeometry x="61.25" y="890" width="20" height="20" as="geometry" />
        </mxCell>
        <mxCell id="5dKcU01m2QW8PNFrroyE-1" value="&lt;font style=&quot;font-size: 20px&quot;&gt;1&lt;/font&gt;" style="text;html=1;align=center;verticalAlign=middle;resizable=0;points=[];autosize=1;strokeColor=none;" vertex="1" parent="EHEwBLLDFzp5XDAm-Ewx-1">
          <mxGeometry x="6.25" y="930" width="30" height="20" as="geometry" />
        </mxCell>
        <mxCell id="5dKcU01m2QW8PNFrroyE-7" style="edgeStyle=orthogonalEdgeStyle;rounded=0;orthogonalLoop=1;jettySize=auto;html=1;entryX=0.553;entryY=-0.047;entryDx=0;entryDy=0;entryPerimeter=0;" edge="1" parent="EHEwBLLDFzp5XDAm-Ewx-1" source="5dKcU01m2QW8PNFrroyE-2" target="5dKcU01m2QW8PNFrroyE-3">
          <mxGeometry relative="1" as="geometry" />
        </mxCell>
        <mxCell id="5dKcU01m2QW8PNFrroyE-8" style="edgeStyle=orthogonalEdgeStyle;rounded=0;orthogonalLoop=1;jettySize=auto;html=1;entryX=0.628;entryY=-0.157;entryDx=0;entryDy=0;entryPerimeter=0;" edge="1" parent="EHEwBLLDFzp5XDAm-Ewx-1" source="5dKcU01m2QW8PNFrroyE-2" target="5dKcU01m2QW8PNFrroyE-4">
          <mxGeometry relative="1" as="geometry" />
        </mxCell>
        <mxCell id="5dKcU01m2QW8PNFrroyE-2" value="&lt;font style=&quot;font-size: 20px&quot;&gt;*&lt;/font&gt;" style="text;html=1;align=center;verticalAlign=middle;resizable=0;points=[];autosize=1;strokeColor=none;" vertex="1" parent="EHEwBLLDFzp5XDAm-Ewx-1">
          <mxGeometry x="116.25" y="930" width="20" height="20" as="geometry" />
        </mxCell>
        <mxCell id="5dKcU01m2QW8PNFrroyE-3" value="&lt;font style=&quot;font-size: 20px&quot;&gt;-8&lt;/font&gt;" style="text;html=1;align=center;verticalAlign=middle;resizable=0;points=[];autosize=1;strokeColor=none;" vertex="1" parent="EHEwBLLDFzp5XDAm-Ewx-1">
          <mxGeometry x="68.75" y="970" width="30" height="20" as="geometry" />
        </mxCell>
        <mxCell id="5dKcU01m2QW8PNFrroyE-4" value="&lt;font style=&quot;font-size: 20px&quot;&gt;2&lt;/font&gt;" style="text;html=1;align=center;verticalAlign=middle;resizable=0;points=[];autosize=1;strokeColor=none;" vertex="1" parent="EHEwBLLDFzp5XDAm-Ewx-1">
          <mxGeometry x="143.75" y="970" width="30" height="20" as="geometry" />
        </mxCell>
        <mxCell id="5dKcU01m2QW8PNFrroyE-19" style="edgeStyle=orthogonalEdgeStyle;rounded=0;orthogonalLoop=1;jettySize=auto;html=1;entryX=0.501;entryY=0.053;entryDx=0;entryDy=0;entryPerimeter=0;" edge="1" parent="EHEwBLLDFzp5XDAm-Ewx-1" source="5dKcU01m2QW8PNFrroyE-9" target="5dKcU01m2QW8PNFrroyE-10">
          <mxGeometry relative="1" as="geometry" />
        </mxCell>
        <mxCell id="5dKcU01m2QW8PNFrroyE-20" style="edgeStyle=orthogonalEdgeStyle;rounded=0;orthogonalLoop=1;jettySize=auto;html=1;" edge="1" parent="EHEwBLLDFzp5XDAm-Ewx-1" source="5dKcU01m2QW8PNFrroyE-9" target="5dKcU01m2QW8PNFrroyE-11">
          <mxGeometry relative="1" as="geometry" />
        </mxCell>
        <mxCell id="5dKcU01m2QW8PNFrroyE-9" value="&lt;font style=&quot;font-size: 20px&quot;&gt;+&lt;/font&gt;" style="text;html=1;align=center;verticalAlign=middle;resizable=0;points=[];autosize=1;strokeColor=none;" vertex="1" parent="EHEwBLLDFzp5XDAm-Ewx-1">
          <mxGeometry x="330.75" y="890" width="30" height="20" as="geometry" />
        </mxCell>
        <mxCell id="5dKcU01m2QW8PNFrroyE-10" value="&lt;font style=&quot;font-size: 20px&quot;&gt;a&lt;/font&gt;" style="text;html=1;align=center;verticalAlign=middle;resizable=0;points=[];autosize=1;strokeColor=none;" vertex="1" parent="EHEwBLLDFzp5XDAm-Ewx-1">
          <mxGeometry x="275" y="920" width="30" height="20" as="geometry" />
        </mxCell>
        <mxCell id="5dKcU01m2QW8PNFrroyE-21" style="edgeStyle=orthogonalEdgeStyle;rounded=0;orthogonalLoop=1;jettySize=auto;html=1;entryX=0.482;entryY=-0.095;entryDx=0;entryDy=0;entryPerimeter=0;" edge="1" parent="EHEwBLLDFzp5XDAm-Ewx-1" source="5dKcU01m2QW8PNFrroyE-11" target="5dKcU01m2QW8PNFrroyE-12">
          <mxGeometry relative="1" as="geometry" />
        </mxCell>
        <mxCell id="5dKcU01m2QW8PNFrroyE-22" style="edgeStyle=orthogonalEdgeStyle;rounded=0;orthogonalLoop=1;jettySize=auto;html=1;entryX=0.534;entryY=0.071;entryDx=0;entryDy=0;entryPerimeter=0;" edge="1" parent="EHEwBLLDFzp5XDAm-Ewx-1" source="5dKcU01m2QW8PNFrroyE-11" target="5dKcU01m2QW8PNFrroyE-13">
          <mxGeometry relative="1" as="geometry" />
        </mxCell>
        <mxCell id="5dKcU01m2QW8PNFrroyE-11" value="&lt;font style=&quot;font-size: 20px&quot;&gt;/&lt;/font&gt;" style="text;html=1;align=center;verticalAlign=middle;resizable=0;points=[];autosize=1;strokeColor=none;" vertex="1" parent="EHEwBLLDFzp5XDAm-Ewx-1">
          <mxGeometry x="439.5" y="920" width="20" height="20" as="geometry" />
        </mxCell>
        <mxCell id="5dKcU01m2QW8PNFrroyE-25" style="edgeStyle=orthogonalEdgeStyle;rounded=0;orthogonalLoop=1;jettySize=auto;html=1;entryX=0.553;entryY=-0.167;entryDx=0;entryDy=0;entryPerimeter=0;" edge="1" parent="EHEwBLLDFzp5XDAm-Ewx-1" source="5dKcU01m2QW8PNFrroyE-12" target="5dKcU01m2QW8PNFrroyE-14">
          <mxGeometry relative="1" as="geometry" />
        </mxCell>
        <mxCell id="5dKcU01m2QW8PNFrroyE-31" style="edgeStyle=orthogonalEdgeStyle;rounded=0;orthogonalLoop=1;jettySize=auto;html=1;" edge="1" parent="EHEwBLLDFzp5XDAm-Ewx-1" source="5dKcU01m2QW8PNFrroyE-12" target="5dKcU01m2QW8PNFrroyE-15">
          <mxGeometry relative="1" as="geometry">
            <Array as="points">
              <mxPoint x="419" y="960" />
            </Array>
          </mxGeometry>
        </mxCell>
        <mxCell id="5dKcU01m2QW8PNFrroyE-12" value="&lt;font style=&quot;font-size: 20px&quot;&gt;left_id&lt;/font&gt;" style="text;html=1;align=center;verticalAlign=middle;resizable=0;points=[];autosize=1;strokeColor=none;" vertex="1" parent="EHEwBLLDFzp5XDAm-Ewx-1">
          <mxGeometry x="338.5" y="950" width="70" height="20" as="geometry" />
        </mxCell>
        <mxCell id="5dKcU01m2QW8PNFrroyE-33" style="edgeStyle=orthogonalEdgeStyle;rounded=0;orthogonalLoop=1;jettySize=auto;html=1;entryX=0.539;entryY=-0.084;entryDx=0;entryDy=0;entryPerimeter=0;" edge="1" parent="EHEwBLLDFzp5XDAm-Ewx-1" source="5dKcU01m2QW8PNFrroyE-13" target="5dKcU01m2QW8PNFrroyE-18">
          <mxGeometry relative="1" as="geometry" />
        </mxCell>
        <mxCell id="5dKcU01m2QW8PNFrroyE-13" value="&lt;font style=&quot;font-size: 20px&quot;&gt;arith_expr&lt;/font&gt;" style="text;html=1;align=center;verticalAlign=middle;resizable=0;points=[];autosize=1;strokeColor=none;" vertex="1" parent="EHEwBLLDFzp5XDAm-Ewx-1">
          <mxGeometry x="475" y="950" width="100" height="20" as="geometry" />
        </mxCell>
        <mxCell id="5dKcU01m2QW8PNFrroyE-14" value="&lt;font style=&quot;font-size: 20px&quot;&gt;id&lt;/font&gt;" style="text;html=1;align=center;verticalAlign=middle;resizable=0;points=[];autosize=1;strokeColor=none;" vertex="1" parent="EHEwBLLDFzp5XDAm-Ewx-1">
          <mxGeometry x="295.5" y="1000" width="30" height="20" as="geometry" />
        </mxCell>
        <mxCell id="5dKcU01m2QW8PNFrroyE-15" value="&lt;font style=&quot;font-size: 20px&quot;&gt;arith_expr&lt;/font&gt;" style="text;html=1;align=center;verticalAlign=middle;resizable=0;points=[];autosize=1;strokeColor=none;" vertex="1" parent="EHEwBLLDFzp5XDAm-Ewx-1">
          <mxGeometry x="369" y="1000" width="100" height="20" as="geometry" />
        </mxCell>
        <mxCell id="5dKcU01m2QW8PNFrroyE-16" value="&lt;font style=&quot;font-size: 20px&quot;&gt;func_call&lt;/font&gt;" style="text;html=1;align=center;verticalAlign=middle;resizable=0;points=[];autosize=1;strokeColor=none;" vertex="1" parent="EHEwBLLDFzp5XDAm-Ewx-1">
          <mxGeometry x="436.25" y="1040" width="90" height="20" as="geometry" />
        </mxCell>
        <mxCell id="5dKcU01m2QW8PNFrroyE-17" value="&lt;font style=&quot;font-size: 20px&quot;&gt;d&lt;/font&gt;" style="text;html=1;align=center;verticalAlign=middle;resizable=0;points=[];autosize=1;strokeColor=none;" vertex="1" parent="EHEwBLLDFzp5XDAm-Ewx-1">
          <mxGeometry x="578.75" y="1040" width="30" height="20" as="geometry" />
        </mxCell>
        <mxCell id="5dKcU01m2QW8PNFrroyE-34" style="edgeStyle=orthogonalEdgeStyle;rounded=0;orthogonalLoop=1;jettySize=auto;html=1;" edge="1" parent="EHEwBLLDFzp5XDAm-Ewx-1" source="5dKcU01m2QW8PNFrroyE-18" target="5dKcU01m2QW8PNFrroyE-16">
          <mxGeometry relative="1" as="geometry">
            <Array as="points">
              <mxPoint x="481" y="1020" />
            </Array>
          </mxGeometry>
        </mxCell>
        <mxCell id="5dKcU01m2QW8PNFrroyE-35" style="edgeStyle=orthogonalEdgeStyle;rounded=0;orthogonalLoop=1;jettySize=auto;html=1;entryX=0.307;entryY=-0.016;entryDx=0;entryDy=0;entryPerimeter=0;" edge="1" parent="EHEwBLLDFzp5XDAm-Ewx-1" source="5dKcU01m2QW8PNFrroyE-18" target="5dKcU01m2QW8PNFrroyE-17">
          <mxGeometry relative="1" as="geometry" />
        </mxCell>
        <mxCell id="5dKcU01m2QW8PNFrroyE-18" value="&lt;font style=&quot;font-size: 20px&quot;&gt;+&lt;/font&gt;" style="text;html=1;align=center;verticalAlign=middle;resizable=0;points=[];autosize=1;strokeColor=none;" vertex="1" parent="EHEwBLLDFzp5XDAm-Ewx-1">
          <mxGeometry x="510" y="1010" width="30" height="20" as="geometry" />
        </mxCell>
      </root>
    </mxGraphModel>
  </diagram>
</mxfile>
